<svg width="128" height="128" viewBox="0 0 128 128" fill="none" xmlns="http://www.w3.org/2000/svg">
<g clip-path="url(#clip0_2264_2802)">
<mask id="mask0_2264_2802" style="mask-type:alpha" maskUnits="userSpaceOnUse" x="9" y="10" width="106" height="106">
<path d="M110.967 44.7738L16.8171 11.149C12.9223 9.75795 8.99273 13.1316 9.77823 17.1921L27.9917 111.342C28.7538 115.281 33.4253 117.004 36.5629 114.503L112.499 53.9786C115.772 51.37 114.908 46.1815 110.967 44.7738Z" fill="#A01B1B"/>
</mask>
<g mask="url(#mask0_2264_2802)">
<rect width="168" height="168" transform="translate(-20 -20)" fill="white"/>
<path fill-rule="evenodd" clip-rule="evenodd" d="M40.6667 61.5095V102.889L50.0001 81.1111L40.6667 61.5095Z" fill="#0F55CF"/>
<path fill-rule="evenodd" clip-rule="evenodd" d="M40.6667 61.5094L50.0001 81.1111L60.889 56.2222L40.6667 61.5094Z" fill="#104FCA"/>
<path fill-rule="evenodd" clip-rule="evenodd" d="M40.6667 29.7778V61.5093L60.889 56.2222L40.6667 29.7778Z" fill="#1244C2"/>
<path fill-rule="evenodd" clip-rule="evenodd" d="M40.6667 29.7778L60.889 56.2222L67.1112 29.7778H40.6667Z" fill="#1343C1"/>
<path fill-rule="evenodd" clip-rule="evenodd" d="M67.1111 29.8127L79.5555 42.2222L96.6666 29.7778L67.1111 29.8127Z" fill="#114AC6"/>
<path fill-rule="evenodd" clip-rule="evenodd" d="M67.1111 29.7778L60.8889 56.2222L79.5556 42.2222L67.1111 29.7778Z" fill="#114AC6"/>
<path fill-rule="evenodd" clip-rule="evenodd" d="M96.6667 56.2222H60.8889L79.5556 42.2222L96.6667 56.2222Z" fill="#0F51CC"/>
<path fill-rule="evenodd" clip-rule="evenodd" d="M60.8889 56.2222L50 81.1111L96.6667 56.2222H60.8889Z" fill="#0F54CE"/>
<path fill-rule="evenodd" clip-rule="evenodd" d="M148 64L96.6667 56.2222L148 148V64Z" fill="#067AEC"/>
<path fill-rule="evenodd" clip-rule="evenodd" d="M96.6667 56.2222L64 148H148L96.6667 56.2222Z" fill="#067BEC"/>
<path fill-rule="evenodd" clip-rule="evenodd" d="M96.6667 29.7778V56.2222L148 64L96.6667 29.7778Z" fill="#0C5ED6"/>
<path fill-rule="evenodd" clip-rule="evenodd" d="M-20 64L40.6666 61.6667L40.6667 29.7778L-20 64Z" fill="#143DBC"/>
<path fill-rule="evenodd" clip-rule="evenodd" d="M-20 64V148L40.6667 102.889L-20 64Z" fill="#104FCA"/>
<path fill-rule="evenodd" clip-rule="evenodd" d="M-20 64L40.6667 102.889V61.6667L-20 64Z" fill="#1148C5"/>
<path fill-rule="evenodd" clip-rule="evenodd" d="M-20 -20V64L40.6667 29.7778L-20 -20Z" fill="#1927AC"/>
<path fill-rule="evenodd" clip-rule="evenodd" d="M-20 -20L40.6667 29.7778L64 -20H-20Z" fill="#1927AC"/>
<path fill-rule="evenodd" clip-rule="evenodd" d="M148 -20L96.6667 29.7778L148 64V-20Z" fill="#0E58D1"/>
<path fill-rule="evenodd" clip-rule="evenodd" d="M50 81.1111L64 148L96.6667 56.2222L50 81.1111Z" fill="#0B65DB"/>
<path fill-rule="evenodd" clip-rule="evenodd" d="M40.6667 102.889L-20 148H64L40.6667 102.889Z" fill="#0A68DE"/>
<path fill-rule="evenodd" clip-rule="evenodd" d="M64 -20L96.6667 29.7778L148 -20H64Z" fill="#143EBD"/>
<path fill-rule="evenodd" clip-rule="evenodd" d="M50.0001 81.1111L40.6667 102.889L64.0001 148L50.0001 81.1111Z" fill="#0A68DE"/>
<path fill-rule="evenodd" clip-rule="evenodd" d="M96.6668 29.7778L79.5557 42.2222L96.6668 56.2222V29.7778Z" fill="#0F52CC"/>
<path fill-rule="evenodd" clip-rule="evenodd" d="M64.0001 -20L40.6667 29.7778H96.6667L64.0001 -20Z" fill="#1538B9"/>
</g>
<path d="M104.611 16.642H41.2778L65.0281 46.0247L104.611 16.642Z" fill="white"/>
<path d="M104.611 46.0247H65.0266L51.8325 74.2922L104.611 46.0247Z" fill="#FFEFA1"/>
<path d="M51.8331 74.2923L41.2778 16.642L65.0272 46.0247L51.8331 74.2923Z" fill="#FFDD9C"/>
<path d="M51.8331 74.2923L41.2778 16.642V97.8765L51.8331 74.2923Z" fill="#EDCC80"/>
</g>
<defs>
<clipPath id="clip0_2264_2802">
<rect width="128" height="128" fill="white"/>
</clipPath>
</defs>
</svg>
